#Comment line ignore any data following # character 
#Hierarchical Translation and Rotation (.htr) file 
[Header]	
#Header keywords are followed by a single value 
FileType HTR		#Single word string
DataType HTRS		#Translation followed by rotation and scale data
FileVersion 1		#integer
NumSegments 25		#integer
NumFrames 4		#integer
DataFrameRate 30		#integer, data frame rate in this file
EulerRotationOrder ZYX
CalibrationUnits mm
RotationUnits Degrees
GlobalAxisofGravity Y
BoneLengthAxis Y
ScaleFactor 1.00
[SegmentNames&Hierarchy]
#CHILD	PARENT
BN_Tick_Root GLOBAL
BN_Torso BN_Tick_Root
BN_L_Leg_Front01 BN_Torso
BN_L_Leg_Rear01 BN_Torso
BN_MetalTop BN_Torso
BN_Neck BN_Torso
BN_R_Leg_Front01 BN_Torso
BN_R_Leg_Rear01 BN_Torso
BN_Sack BN_Torso
BN_L_Leg_Front02 BN_L_Leg_Front01
BN_L_Leg_Front03 BN_L_Leg_Front02
BN_L_Leg_Rear02 BN_L_Leg_Rear01
BN_L_Leg_Rear03 BN_L_Leg_Rear02
BN_Head BN_Neck
BN_Needle BN_Head
BN_R_Leg_Front02 BN_R_Leg_Front01
BN_R_Leg_Front03 BN_R_Leg_Front02
BN_R_Leg_Rear02 BN_R_Leg_Rear01
BN_R_Leg_Rear03 BN_R_Leg_Rear02
BN_SackDef01 BN_Sack
BN_SackDef02 BN_Sack
BN_SackDef03 BN_Sack
BN_SackDef04 BN_Sack
BN_SackDef05 BN_Sack
BN_SackDef06 BN_Sack
[BasePosition]
#SegmentName Tx, Ty, Tz, Rx, Ry, Rz, BoneLength
BN_Tick_Root 0.000000 0.000000 0.000000 -90.000000 0.000000 0.000000 10.000000 
BN_Torso 0.000000 0.000000 0.000000 0.000000 0.000000 0.000000 10.000000 
BN_L_Leg_Front01 0.000000 0.000000 0.000000 0.000000 0.000000 0.000000 10.000000 
BN_L_Leg_Rear01 0.000000 0.000000 0.000000 0.000000 0.000000 0.000000 10.000000 
BN_MetalTop 0.000000 0.000000 0.000000 0.000000 0.000000 0.000000 10.000000 
BN_Neck 0.000000 0.000000 0.000000 0.000000 0.000000 0.000000 10.000000 
BN_R_Leg_Front01 0.000000 0.000000 0.000000 0.000000 0.000000 0.000000 10.000000 
BN_R_Leg_Rear01 0.000000 0.000000 0.000000 0.000000 0.000000 0.000000 10.000000 
BN_Sack 0.000000 0.000000 0.000000 0.000000 0.000000 0.000000 10.000000 
BN_L_Leg_Front02 0.000000 0.000000 0.000000 0.000000 0.000000 0.000000 10.000000 
BN_L_Leg_Front03 0.000000 0.000000 0.000000 0.000000 0.000000 0.000000 10.000000 
BN_L_Leg_Rear02 0.000000 0.000000 0.000000 0.000000 0.000000 0.000000 10.000000 
BN_L_Leg_Rear03 0.000000 0.000000 0.000000 0.000000 0.000000 0.000000 10.000000 
BN_Head 0.000000 0.000000 0.000000 0.000000 0.000000 0.000000 10.000000 
BN_Needle 0.000000 0.000000 0.000000 0.000000 0.000000 0.000000 10.000000 
BN_R_Leg_Front02 0.000000 0.000000 0.000000 0.000000 0.000000 0.000000 10.000000 
BN_R_Leg_Front03 0.000000 0.000000 0.000000 0.000000 0.000000 0.000000 10.000000 
BN_R_Leg_Rear02 0.000000 0.000000 0.000000 0.000000 0.000000 0.000000 10.000000 
BN_R_Leg_Rear03 0.000000 0.000000 0.000000 0.000000 0.000000 0.000000 10.000000 
BN_SackDef01 0.000000 0.000000 0.000000 0.000000 0.000000 0.000000 10.000000 
BN_SackDef02 0.000000 0.000000 0.000000 0.000000 0.000000 0.000000 10.000000 
BN_SackDef03 0.000000 0.000000 0.000000 0.000000 0.000000 0.000000 10.000000 
BN_SackDef04 0.000000 0.000000 0.000000 0.000000 0.000000 0.000000 10.000000 
BN_SackDef05 0.000000 0.000000 0.000000 0.000000 0.000000 0.000000 10.000000 
BN_SackDef06 0.000000 0.000000 0.000000 0.000000 0.000000 0.000000 10.000000 
#Beginning of Data. Separated by tabs
#Fr	Tx	Ty	Tz	Rx	Ry	Rz	SF
[BN_Tick_Root]
110 -443.171448 -339.649139 -0.000343 0.000000 0.000000 -2.172266 558.356934
111 -392.760376 -324.890045 -0.000349 0.000000 -0.000000 2.332070 509.719788
112 -341.124481 -309.772308 -0.000354 0.000000 -0.000000 6.843383 460.787140
113 -290.713074 -295.013184 -0.000359 0.000000 -0.000000 11.347730 414.182190
[BN_Torso]
110 151.727966 33.796497 252.107407 9.223884 12.630580 10.294635 296.178528
111 135.321274 18.901632 239.080643 8.509141 11.637797 9.587380 275.370056
112 110.411385 6.381820 220.099106 7.864225 10.184632 8.333750 246.322998
113 82.080093 -1.805586 197.395477 7.260610 8.447861 6.747955 213.788147
[BN_L_Leg_Front01]
110 -68.477791 10.734189 -26.804373 51.595871 80.980598 -104.376244 74.316254
111 -68.477791 10.734189 -26.804373 5.307764 79.682503 -146.372421 74.316254
112 -68.477791 10.734189 -26.804373 -21.843433 74.069168 -171.615448 74.316254
113 -68.477791 10.734189 -26.804373 -34.660194 66.430717 176.418427 74.316254
[BN_L_Leg_Rear01]
110 -72.133743 -73.994843 -18.268616 77.614090 36.207066 -71.470970 104.939293
111 -72.133743 -73.994843 -18.268616 79.129433 37.874741 -80.748772 104.939293
112 -72.133743 -73.994843 -18.268616 79.019058 37.910927 -90.010147 104.939293
113 -72.133743 -73.994843 -18.268616 77.852707 36.474548 -99.145927 104.939293
[BN_MetalTop]
110 0.000008 13.737477 26.403606 90.000008 -12.928561 -89.999992 29.763546
111 0.000008 13.737477 26.403606 90.000008 -12.928561 -89.999992 29.763546
112 0.000008 13.737477 26.403606 90.000008 -12.928561 -89.999992 29.763546
113 0.000008 13.737477 26.403606 90.000008 -12.928561 -89.999992 29.763546
[BN_Neck]
110 0.000014 95.233284 10.002091 -100.513443 -84.022270 103.540565 95.757088
111 0.000014 95.233284 10.002091 -98.862984 -83.388023 101.792931 95.757088
112 0.000014 95.233284 10.002091 -97.252846 -82.605087 100.057816 95.757088
113 0.000014 95.233284 10.002091 -95.719910 -81.626747 98.375793 95.757088
[BN_R_Leg_Front01]
110 68.477768 10.734107 -26.804314 -3.982951 63.301155 -5.086963 74.316193
111 68.477768 10.734107 -26.804314 17.731138 56.377079 5.964813 74.316193
112 68.477768 10.734107 -26.804314 30.799280 47.795918 10.743458 74.316193
113 68.477768 10.734107 -26.804314 38.618290 39.694286 11.725429 74.316193
[BN_R_Leg_Rear01]
110 72.133751 -73.994873 -18.268644 -46.703064 39.561848 -80.382782 104.939331
111 72.133751 -73.994873 -18.268644 -50.069359 40.107525 -71.012451 104.939331
112 72.133751 -73.994873 -18.268644 -56.245136 37.774452 -59.555130 104.939331
113 72.133751 -73.994873 -18.268644 -62.652672 32.879715 -48.232216 104.939331
[BN_Sack]
110 -0.000000 -78.024918 33.657791 90.003067 -3.283883 -90.000671 84.974907
111 -0.000000 -78.024918 33.657791 90.002823 -3.446219 -90.000839 84.974907
112 -0.000000 -78.024918 33.657791 90.002556 -3.608535 -90.000984 84.974907
113 -0.000000 -78.024918 33.657791 89.999542 -3.625329 -90.000374 84.974907
[BN_L_Leg_Front02]
110 142.805023 -0.000015 -0.000104 -0.073923 -18.711248 -123.722511 142.805023
111 142.805023 -0.000015 -0.000104 -0.217537 -18.711267 -123.163910 142.805023
112 142.805023 -0.000015 -0.000104 0.213244 -18.704031 -124.825096 142.805023
113 142.805023 -0.000015 -0.000104 0.775160 -18.674255 -127.012848 142.805023
[BN_L_Leg_Front03]
110 124.143021 -0.000045 0.000007 0.353596 -0.340300 130.765198 124.143021
111 124.143021 -0.000045 0.000007 0.352446 -0.345557 130.340591 124.143021
112 124.143021 -0.000045 0.000007 0.353602 -0.336317 131.596298 124.143021
113 124.143021 -0.000045 0.000007 0.353995 -0.328247 133.207077 124.143021
[BN_L_Leg_Rear02]
110 139.939041 0.000075 -0.000022 15.220175 -12.285301 59.352509 139.939041
111 139.939041 0.000075 -0.000022 14.153052 -13.585297 64.645653 139.939041
112 139.939041 0.000075 -0.000022 13.169958 -14.612406 69.176620 139.939041
113 139.939041 0.000075 -0.000022 12.321154 -15.395136 72.909470 139.939041
[BN_L_Leg_Rear03]
110 142.839615 0.000179 -0.000060 0.000458 0.002302 -67.495087 142.839615
111 142.839615 0.000179 -0.000060 0.000295 0.002329 -75.579124 142.839615
112 142.839615 0.000179 -0.000060 0.000159 0.002342 -82.241493 142.839615
113 142.839615 0.000179 -0.000060 0.000051 0.002346 -87.529709 142.839615
[BN_Head]
110 57.062447 -0.000030 0.000000 3.388740 -1.026444 -17.573624 57.062447
111 57.062447 -0.000030 0.000000 3.256310 -0.987904 -16.887943 57.062447
112 57.062447 -0.000030 0.000000 3.124350 -0.947782 -16.202343 57.062447
113 57.062447 -0.000030 0.000000 2.943779 -0.893998 -15.270297 57.062447
[BN_Needle]
110 33.915131 69.677582 -0.000045 0.000003 0.000030 87.896805 77.493233
111 33.915131 69.677582 -0.000045 0.000003 0.000030 87.896805 77.493233
112 33.915127 69.677582 -0.000044 0.000003 0.000030 87.896805 77.493233
113 33.915127 69.677582 -0.000044 0.000003 0.000030 87.896805 77.493233
[BN_R_Leg_Front02]
110 142.804947 -0.000060 0.000060 -3.357372 -11.232709 145.067001 142.804947
111 142.804947 -0.000060 0.000060 -1.892744 -12.597746 134.710754 142.804947
112 142.804947 -0.000060 0.000060 0.513119 -13.840978 121.250801 142.804947
113 142.804947 -0.000060 0.000060 3.959763 -14.567267 105.186737 142.804947
[BN_R_Leg_Front03]
110 124.143005 -0.000060 -0.000156 -0.354295 -0.258439 -145.090317 124.143005
111 124.143005 -0.000060 -0.000156 -0.353216 -0.296744 -138.689926 124.143005
112 124.143005 -0.000060 -0.000156 -0.351618 -0.348948 -128.840210 124.143005
113 124.143005 -0.000060 -0.000156 -0.355062 -0.408673 -114.483276 124.143005
[BN_R_Leg_Rear02]
110 139.939011 -0.000149 0.000015 -5.985905 -11.077535 -84.875130 139.939011
111 139.939011 -0.000149 0.000015 -4.099824 -12.148387 -96.227089 139.939011
112 139.939011 -0.000149 0.000015 -3.102919 -12.622602 -102.021584 139.939011
113 139.939011 -0.000149 0.000015 -3.774137 -12.434654 -98.316162 139.939011
[BN_R_Leg_Rear03]
110 142.839417 0.000075 0.000119 0.002334 -0.000248 102.147125 142.839417
111 142.839417 0.000075 0.000119 0.002289 -0.000519 115.561806 142.839417
112 142.839417 0.000075 0.000119 0.002258 -0.000641 121.681213 142.839417
113 142.839417 0.000075 0.000119 0.002278 -0.000565 117.838043 142.839417
[BN_SackDef01]
110 249.782272 -3.760844 42.949425 -128.408218 -44.374973 -11.740845 253.475800
111 249.782272 -3.760844 42.949425 -128.408218 -44.374973 -11.740845 253.475800
112 249.782272 -3.760844 42.949425 -128.408218 -44.374973 -11.740845 253.475800
113 249.782272 -3.760844 42.949425 -128.408218 -44.374973 -11.740845 253.475800
[BN_SackDef02]
110 138.789795 -62.131748 45.674385 32.077126 -27.375721 -88.781525 158.773758
111 138.789795 -62.131748 45.674385 32.077126 -27.375721 -88.781525 158.773758
112 138.789795 -62.131748 45.674385 32.077126 -27.375721 -88.781525 158.773758
113 138.789795 -62.131748 45.674385 32.077126 -27.375721 -88.781525 158.773758
[BN_SackDef03]
110 249.782272 -3.760785 -42.949661 18.144459 44.375008 -11.740894 253.475845
111 249.782272 -3.760785 -42.949661 18.144459 44.375008 -11.740894 253.475845
112 249.782272 -3.760785 -42.949661 18.144459 44.375008 -11.740894 253.475845
113 249.782272 -3.760785 -42.949661 18.144459 44.375008 -11.740894 253.475845
[BN_SackDef04]
110 138.789780 -62.131645 -45.674473 146.059982 27.375723 -88.781555 158.773743
111 138.789780 -62.131645 -45.674473 146.059982 27.375723 -88.781555 158.773743
112 138.789780 -62.131645 -45.674473 146.059982 27.375723 -88.781555 158.773743
113 138.789780 -62.131645 -45.674473 146.059982 27.375723 -88.781555 158.773743
[BN_SackDef05]
110 118.790161 46.167137 -63.831196 0.155741 51.314110 90.605110 142.537460
111 118.790161 46.167137 -63.831196 0.155741 51.314110 90.605110 142.537460
112 118.790161 46.167137 -63.831196 0.155741 51.314110 90.605110 142.537460
113 118.790161 46.167137 -63.831196 0.155741 51.314110 90.605110 142.537460
[BN_SackDef06]
110 118.790207 46.167194 63.831219 152.058487 -51.314072 90.605019 142.537537
111 118.790207 46.167194 63.831219 152.058487 -51.314072 90.605019 142.537537
112 118.790207 46.167194 63.831219 152.058487 -51.314072 90.605019 142.537537
113 118.790207 46.167194 63.831219 152.058487 -51.314072 90.605019 142.537537
